STARTFONT 2.1
FONT -Linotype-Helvetica-Medium-O-Normal-Sans-12-120-72-72-P-65-ISO8859-1
SIZE 12 72 72
FONTBOUNDINGBOX 20 15 -5 -3

STARTPROPERTIES 22
FONTNAME_REGISTRY "-"
FOUNDRY "Linotype"
FAMILY_NAME "Helvetica"
WEIGHT_NAME "Medium"
SLANT "O"
SETWIDTH_NAME "Normal"
ADD_STYLE_NAME "Sans"
PIXEL_SIZE 12
POINT_SIZE 120
RESOLUTION_X 72
RESOLUTION_Y 72
SPACING "P"
CHARSET_REGISTRY "ISO8859"
CHARSET_ENCODING "1"
FULL_NAME "Helvetica-Oblique"
AVERAGE_WIDTH 65
WEIGHT 10
X_HEIGHT 6
QUAD_WIDTH 7
DEFAULT_CHAR 32
FONT_DESCENT 3
FONT_ASCENT 11
ENDPROPERTIES

CHARS 190

STARTCHAR space
ENCODING 32
SWIDTH 278 0
DWIDTH 3 0
BBX 1 1 0 0
BITMAP
00
ENDCHAR

STARTCHAR exclam
ENCODING 33
SWIDTH 278 0
DWIDTH 3 0
BBX 3 9 1 0
BITMAP
20
20
20
40
40
40
40
00
80
ENDCHAR

STARTCHAR quotedbl
ENCODING 34
SWIDTH 355 0
DWIDTH 4 0
BBX 3 3 2 6
BITMAP
A0
A0
A0
ENDCHAR

STARTCHAR numbersign
ENCODING 35
SWIDTH 556 0
DWIDTH 7 0
BBX 7 9 1 0
BITMAP
0A
14
14
7E
28
28
FC
50
A0
ENDCHAR

STARTCHAR dollar
ENCODING 36
SWIDTH 556 0
DWIDTH 7 0
BBX 6 11 1 -1
BITMAP
08
38
54
54
30
18
14
A4
A8
70
20
ENDCHAR

STARTCHAR percent
ENCODING 37
SWIDTH 889 0
DWIDTH 11 0
BBX 9 9 2 0
BITMAP
6080
9100
9200
6400
0800
1300
1480
2480
4300
ENDCHAR

STARTCHAR ampersand
ENCODING 38
SWIDTH 667 0
DWIDTH 8 0
BBX 7 9 1 0
BITMAP
18
24
24
28
30
4A
84
8C
72
ENDCHAR

STARTCHAR quoteright
ENCODING 39
SWIDTH 222 0
DWIDTH 3 0
BBX 2 3 2 6
BITMAP
80
40
40
ENDCHAR

STARTCHAR parenleft
ENCODING 40
SWIDTH 333 0
DWIDTH 4 0
BBX 4 12 1 -3
BITMAP
10
20
40
40
40
80
80
80
80
40
40
40
ENDCHAR

STARTCHAR parenright
ENCODING 41
SWIDTH 333 0
DWIDTH 4 0
BBX 4 12 0 -3
BITMAP
20
20
20
10
10
10
10
20
20
20
40
80
ENDCHAR

STARTCHAR asterisk
ENCODING 42
SWIDTH 389 0
DWIDTH 5 0
BBX 3 3 2 6
BITMAP
40
E0
40
ENDCHAR

STARTCHAR plus
ENCODING 43
SWIDTH 584 0
DWIDTH 7 0
BBX 6 5 1 0
BITMAP
10
10
FC
20
20
ENDCHAR

STARTCHAR comma
ENCODING 44
SWIDTH 278 0
DWIDTH 3 0
BBX 2 3 1 -1
BITMAP
C0
40
80
ENDCHAR

STARTCHAR minus
ENCODING 45
SWIDTH 584 0
DWIDTH 7 0
BBX 6 1 1 2
BITMAP
FC
ENDCHAR

STARTCHAR period
ENCODING 46
SWIDTH 278 0
DWIDTH 3 0
BBX 2 1 1 0
BITMAP
C0
ENDCHAR

STARTCHAR slash
ENCODING 47
SWIDTH 278 0
DWIDTH 3 0
BBX 6 9 0 0
BITMAP
04
08
08
10
20
20
40
40
80
ENDCHAR

STARTCHAR zero
ENCODING 48
SWIDTH 556 0
DWIDTH 7 0
BBX 6 9 1 0
BITMAP
38
44
44
84
84
84
88
88
70
ENDCHAR

STARTCHAR one
ENCODING 49
SWIDTH 556 0
DWIDTH 7 0
BBX 3 9 3 0
BITMAP
20
20
E0
20
20
40
40
40
40
ENDCHAR

STARTCHAR two
ENCODING 50
SWIDTH 556 0
DWIDTH 7 0
BBX 7 9 0 0
BITMAP
1C
22
42
02
0C
30
40
80
FC
ENDCHAR

STARTCHAR three
ENCODING 51
SWIDTH 556 0
DWIDTH 7 0
BBX 6 9 1 0
BITMAP
38
44
44
04
18
04
84
88
70
ENDCHAR

STARTCHAR four
ENCODING 52
SWIDTH 556 0
DWIDTH 7 0
BBX 6 9 1 0
BITMAP
04
0C
14
24
48
88
FC
08
10
ENDCHAR

STARTCHAR five
ENCODING 53
SWIDTH 556 0
DWIDTH 7 0
BBX 7 9 1 0
BITMAP
3E
20
40
78
44
04
04
88
70
ENDCHAR

STARTCHAR six
ENCODING 54
SWIDTH 556 0
DWIDTH 7 0
BBX 6 9 1 0
BITMAP
38
44
40
78
44
84
84
88
70
ENDCHAR

STARTCHAR seven
ENCODING 55
SWIDTH 556 0
DWIDTH 7 0
BBX 6 9 2 0
BITMAP
FC
04
08
10
10
20
40
40
80
ENDCHAR

STARTCHAR eight
ENCODING 56
SWIDTH 556 0
DWIDTH 7 0
BBX 6 9 1 0
BITMAP
38
24
44
48
38
44
84
88
70
ENDCHAR

STARTCHAR nine
ENCODING 57
SWIDTH 556 0
DWIDTH 7 0
BBX 6 9 1 0
BITMAP
38
44
84
84
88
78
08
88
70
ENDCHAR

STARTCHAR colon
ENCODING 58
SWIDTH 278 0
DWIDTH 3 0
BBX 3 6 1 0
BITMAP
60
00
00
00
00
C0
ENDCHAR

STARTCHAR semicolon
ENCODING 59
SWIDTH 278 0
DWIDTH 3 0
BBX 3 8 1 -2
BITMAP
60
00
00
00
00
C0
40
80
ENDCHAR

STARTCHAR less
ENCODING 60
SWIDTH 584 0
DWIDTH 7 0
BBX 7 6 1 0
BITMAP
06
18
60
C0
30
0C
ENDCHAR

STARTCHAR equal
ENCODING 61
SWIDTH 584 0
DWIDTH 7 0
BBX 6 3 1 1
BITMAP
FC
00
FC
ENDCHAR

STARTCHAR greater
ENCODING 62
SWIDTH 584 0
DWIDTH 7 0
BBX 7 6 1 0
BITMAP
60
18
06
0C
30
C0
ENDCHAR

STARTCHAR question
ENCODING 63
SWIDTH 556 0
DWIDTH 7 0
BBX 5 9 2 0
BITMAP
70
88
88
08
10
20
40
00
40
ENDCHAR

STARTCHAR at
ENCODING 64
SWIDTH 1015 0
DWIDTH 12 0
BBX 11 11 1 -2
BITMAP
0780
1840
2020
47A0
4920
9120
9120
9240
8F80
4000
3E00
ENDCHAR

STARTCHAR A
ENCODING 65
SWIDTH 667 0
DWIDTH 8 0
BBX 8 9 0 0
BITMAP
06
0A
0A
12
22
3E
42
42
81
ENDCHAR

STARTCHAR B
ENCODING 66
SWIDTH 667 0
DWIDTH 8 0
BBX 7 9 1 0
BITMAP
3C
22
42
42
7C
42
42
82
FC
ENDCHAR

STARTCHAR C
ENCODING 67
SWIDTH 722 0
DWIDTH 9 0
BBX 8 9 1 0
BITMAP
1E
21
41
80
80
80
82
84
78
ENDCHAR

STARTCHAR D
ENCODING 68
SWIDTH 722 0
DWIDTH 9 0
BBX 8 9 1 0
BITMAP
3E
21
41
41
41
41
42
84
F8
ENDCHAR

STARTCHAR E
ENCODING 69
SWIDTH 667 0
DWIDTH 8 0
BBX 8 9 1 0
BITMAP
3F
20
40
40
7E
40
40
80
FC
ENDCHAR

STARTCHAR F
ENCODING 70
SWIDTH 611 0
DWIDTH 7 0
BBX 8 9 1 0
BITMAP
3F
20
40
40
7C
40
40
80
80
ENDCHAR

STARTCHAR G
ENCODING 71
SWIDTH 778 0
DWIDTH 9 0
BBX 8 9 1 0
BITMAP
1E
21
41
80
8F
81
81
83
7D
ENDCHAR

STARTCHAR H
ENCODING 72
SWIDTH 722 0
DWIDTH 9 0
BBX 9 9 1 0
BITMAP
2080
2080
4100
4100
7F00
4100
8200
8200
8200
ENDCHAR

STARTCHAR I
ENCODING 73
SWIDTH 278 0
DWIDTH 3 0
BBX 3 9 1 0
BITMAP
20
20
20
40
40
40
80
80
80
ENDCHAR

STARTCHAR J
ENCODING 74
SWIDTH 500 0
DWIDTH 6 0
BBX 6 9 1 0
BITMAP
04
04
04
04
08
08
88
88
70
ENDCHAR

STARTCHAR K
ENCODING 75
SWIDTH 667 0
DWIDTH 8 0
BBX 8 9 1 0
BITMAP
21
22
24
58
68
48
84
84
82
ENDCHAR

STARTCHAR L
ENCODING 76
SWIDTH 556 0
DWIDTH 7 0
BBX 5 9 1 0
BITMAP
20
20
20
40
40
40
80
80
F8
ENDCHAR

STARTCHAR M
ENCODING 77
SWIDTH 833 0
DWIDTH 10 0
BBX 10 9 1 0
BITMAP
20C0
3180
5280
5280
5280
5280
5480
9500
8900
ENDCHAR

STARTCHAR N
ENCODING 78
SWIDTH 722 0
DWIDTH 9 0
BBX 9 9 1 0
BITMAP
2080
3080
5100
5100
4900
4900
4500
8600
8200
ENDCHAR

STARTCHAR O
ENCODING 79
SWIDTH 778 0
DWIDTH 9 0
BBX 8 9 1 0
BITMAP
1E
21
41
41
81
82
82
84
78
ENDCHAR

STARTCHAR P
ENCODING 80
SWIDTH 667 0
DWIDTH 8 0
BBX 8 9 1 0
BITMAP
3E
21
41
42
7C
40
40
80
80
ENDCHAR

STARTCHAR Q
ENCODING 81
SWIDTH 778 0
DWIDTH 9 0
BBX 8 9 1 0
BITMAP
1E
21
41
81
81
81
86
86
79
ENDCHAR

STARTCHAR R
ENCODING 82
SWIDTH 722 0
DWIDTH 9 0
BBX 8 9 1 0
BITMAP
3E
21
41
42
7C
42
42
82
82
ENDCHAR

STARTCHAR S
ENCODING 83
SWIDTH 667 0
DWIDTH 8 0
BBX 7 9 1 0
BITMAP
1C
22
42
40
3C
02
82
84
78
ENDCHAR

STARTCHAR T
ENCODING 84
SWIDTH 611 0
DWIDTH 7 0
BBX 7 9 2 0
BITMAP
FE
10
10
20
20
20
20
40
40
ENDCHAR

STARTCHAR U
ENCODING 85
SWIDTH 722 0
DWIDTH 9 0
BBX 8 9 1 0
BITMAP
21
21
21
42
42
42
84
84
78
ENDCHAR

STARTCHAR V
ENCODING 86
SWIDTH 667 0
DWIDTH 8 0
BBX 7 9 2 0
BITMAP
82
84
84
48
48
50
50
60
20
ENDCHAR

STARTCHAR W
ENCODING 87
SWIDTH 944 0
DWIDTH 11 0
BBX 11 9 2 0
BITMAP
8420
8C40
8C40
9480
9480
A500
A500
4200
4200
ENDCHAR

STARTCHAR X
ENCODING 88
SWIDTH 667 0
DWIDTH 8 0
BBX 9 9 0 0
BITMAP
2080
1100
1200
0C00
0800
1400
2400
4200
8200
ENDCHAR

STARTCHAR Y
ENCODING 89
SWIDTH 667 0
DWIDTH 8 0
BBX 8 9 2 0
BITMAP
81
42
44
28
10
10
10
10
10
ENDCHAR

STARTCHAR Z
ENCODING 90
SWIDTH 611 0
DWIDTH 7 0
BBX 9 9 0 0
BITMAP
3F80
0100
0200
0400
0800
1000
2000
4000
FE00
ENDCHAR

STARTCHAR bracketleft
ENCODING 91
SWIDTH 278 0
DWIDTH 3 0
BBX 5 12 0 -3
BITMAP
38
20
20
20
40
40
40
40
80
80
80
C0
ENDCHAR

STARTCHAR backslash
ENCODING 92
SWIDTH 278 0
DWIDTH 3 0
BBX 2 9 2 0
BITMAP
80
80
80
80
80
40
40
40
40
ENDCHAR

STARTCHAR bracketright
ENCODING 93
SWIDTH 278 0
DWIDTH 3 0
BBX 4 12 0 -3
BITMAP
70
10
10
10
20
20
20
20
40
40
40
C0
ENDCHAR

STARTCHAR asciicircum
ENCODING 94
SWIDTH 469 0
DWIDTH 6 0
BBX 5 6 1 3
BITMAP
30
30
50
50
88
88
ENDCHAR

STARTCHAR underscore
ENCODING 95
SWIDTH 556 0
DWIDTH 7 0
BBX 7 1 0 -3
BITMAP
FE
ENDCHAR

STARTCHAR quoteleft
ENCODING 96
SWIDTH 222 0
DWIDTH 3 0
BBX 2 3 2 6
BITMAP
40
80
80
ENDCHAR

STARTCHAR a
ENCODING 97
SWIDTH 556 0
DWIDTH 7 0
BBX 6 6 1 0
BITMAP
3C
04
7C
88
88
74
ENDCHAR

STARTCHAR b
ENCODING 98
SWIDTH 556 0
DWIDTH 7 0
BBX 6 9 1 0
BITMAP
20
20
40
58
64
44
44
C8
B0
ENDCHAR

STARTCHAR c
ENCODING 99
SWIDTH 500 0
DWIDTH 6 0
BBX 6 6 1 0
BITMAP
38
44
80
80
88
70
ENDCHAR

STARTCHAR d
ENCODING 100
SWIDTH 556 0
DWIDTH 7 0
BBX 6 9 1 0
BITMAP
04
04
08
38
48
88
88
98
68
ENDCHAR

STARTCHAR e
ENCODING 101
SWIDTH 556 0
DWIDTH 7 0
BBX 6 6 1 0
BITMAP
38
44
FC
80
88
70
ENDCHAR

STARTCHAR f
ENCODING 102
SWIDTH 278 0
DWIDTH 3 0
BBX 4 9 1 0
BITMAP
30
20
40
E0
40
40
80
80
80
ENDCHAR

STARTCHAR g
ENCODING 103
SWIDTH 556 0
DWIDTH 7 0
BBX 7 9 0 -3
BITMAP
3A
44
44
44
4C
34
04
88
70
ENDCHAR

STARTCHAR h
ENCODING 104
SWIDTH 556 0
DWIDTH 7 0
BBX 6 9 1 0
BITMAP
20
20
20
7C
44
44
44
88
88
ENDCHAR

STARTCHAR i
ENCODING 105
SWIDTH 222 0
DWIDTH 3 0
BBX 3 9 1 0
BITMAP
20
20
00
40
40
40
80
80
80
ENDCHAR

STARTCHAR j
ENCODING 106
SWIDTH 222 0
DWIDTH 3 0
BBX 4 12 0 -3
BITMAP
10
00
00
10
10
20
20
20
40
40
40
80
ENDCHAR

STARTCHAR k
ENCODING 107
SWIDTH 500 0
DWIDTH 6 0
BBX 6 9 1 0
BITMAP
20
20
20
44
48
70
90
88
88
ENDCHAR

STARTCHAR l
ENCODING 108
SWIDTH 222 0
DWIDTH 3 0
BBX 3 9 1 0
BITMAP
20
20
20
40
40
40
80
80
80
ENDCHAR

STARTCHAR m
ENCODING 109
SWIDTH 833 0
DWIDTH 10 0
BBX 9 6 1 0
BITMAP
7300
4C80
4880
8880
9100
9100
ENDCHAR

STARTCHAR n
ENCODING 110
SWIDTH 556 0
DWIDTH 7 0
BBX 6 6 1 0
BITMAP
58
64
44
44
88
88
ENDCHAR

STARTCHAR o
ENCODING 111
SWIDTH 556 0
DWIDTH 7 0
BBX 6 6 1 0
BITMAP
38
44
84
84
88
70
ENDCHAR

STARTCHAR p
ENCODING 112
SWIDTH 556 0
DWIDTH 7 0
BBX 7 9 0 -3
BITMAP
3C
22
22
42
44
78
80
80
80
ENDCHAR

STARTCHAR q
ENCODING 113
SWIDTH 556 0
DWIDTH 7 0
BBX 6 9 1 -3
BITMAP
3C
44
84
88
88
78
08
08
08
ENDCHAR

STARTCHAR r
ENCODING 114
SWIDTH 333 0
DWIDTH 4 0
BBX 4 6 1 0
BITMAP
50
60
40
80
80
80
ENDCHAR

STARTCHAR s
ENCODING 115
SWIDTH 500 0
DWIDTH 6 0
BBX 6 6 1 0
BITMAP
38
44
20
10
88
70
ENDCHAR

STARTCHAR t
ENCODING 116
SWIDTH 278 0
DWIDTH 3 0
BBX 3 8 1 0
BITMAP
40
40
E0
40
80
80
80
80
ENDCHAR

STARTCHAR u
ENCODING 117
SWIDTH 556 0
DWIDTH 7 0
BBX 6 6 1 0
BITMAP
44
44
88
88
88
74
ENDCHAR

STARTCHAR v
ENCODING 118
SWIDTH 500 0
DWIDTH 6 0
BBX 6 6 1 0
BITMAP
84
88
90
50
60
40
ENDCHAR

STARTCHAR w
ENCODING 119
SWIDTH 722 0
DWIDTH 9 0
BBX 9 6 1 0
BITMAP
8880
9900
AA00
AA00
CC00
4800
ENDCHAR

STARTCHAR x
ENCODING 120
SWIDTH 500 0
DWIDTH 6 0
BBX 6 6 0 0
BITMAP
44
28
10
30
48
84
ENDCHAR

STARTCHAR y
ENCODING 121
SWIDTH 500 0
DWIDTH 6 0
BBX 7 9 0 -3
BITMAP
42
24
24
28
10
10
20
40
80
ENDCHAR

STARTCHAR z
ENCODING 122
SWIDTH 500 0
DWIDTH 6 0
BBX 6 6 0 0
BITMAP
7C
08
10
20
40
F8
ENDCHAR

STARTCHAR braceleft
ENCODING 123
SWIDTH 334 0
DWIDTH 4 0
BBX 4 12 1 -3
BITMAP
30
20
20
40
40
40
80
40
40
40
80
C0
ENDCHAR

STARTCHAR bar
ENCODING 124
SWIDTH 260 0
DWIDTH 3 0
BBX 3 12 1 -3
BITMAP
20
20
20
20
40
40
40
40
80
80
80
80
ENDCHAR

STARTCHAR braceright
ENCODING 125
SWIDTH 334 0
DWIDTH 4 0
BBX 4 12 0 -3
BITMAP
30
10
20
20
20
10
20
20
20
40
40
C0
ENDCHAR

STARTCHAR asciitilde
ENCODING 126
SWIDTH 584 0
DWIDTH 7 0
BBX 5 2 2 3
BITMAP
E8
B8
ENDCHAR

STARTCHAR exclamdown
ENCODING 161
SWIDTH 333 0
DWIDTH 4 0
BBX 3 9 1 -3
BITMAP
20
00
40
40
40
80
80
80
80
ENDCHAR

STARTCHAR cent
ENCODING 162
SWIDTH 556 0
DWIDTH 7 0
BBX 6 8 1 -1
BITMAP
08
38
54
90
A0
A8
70
40
ENDCHAR

STARTCHAR sterling
ENCODING 163
SWIDTH 556 0
DWIDTH 7 0
BBX 7 9 1 0
BITMAP
1C
22
62
20
78
20
20
40
FC
ENDCHAR

STARTCHAR currency
ENCODING 164
SWIDTH 556 0
DWIDTH 7 0
BBX 6 4 1 2
BITMAP
FC
48
48
FC
ENDCHAR

STARTCHAR yen
ENCODING 165
SWIDTH 556 0
DWIDTH 7 0
BBX 8 9 1 0
BITMAP
81
42
44
28
7E
10
7C
10
10
ENDCHAR

STARTCHAR brokenbar
ENCODING 166
SWIDTH 260 0
DWIDTH 3 0
BBX 3 12 1 -3
BITMAP
20
20
20
40
40
00
00
40
40
80
80
80
ENDCHAR

STARTCHAR section
ENCODING 167
SWIDTH 556 0
DWIDTH 7 0
BBX 6 12 1 -3
BITMAP
18
24
20
30
48
44
44
28
10
10
90
60
ENDCHAR

STARTCHAR dieresis
ENCODING 168
SWIDTH 333 0
DWIDTH 4 0
BBX 3 1 2 8
BITMAP
A0
ENDCHAR

STARTCHAR copyright
ENCODING 169
SWIDTH 737 0
DWIDTH 9 0
BBX 9 9 1 0
BITMAP
1F00
2080
4C80
9280
A080
A480
9900
4200
3C00
ENDCHAR

STARTCHAR ordfeminine
ENCODING 170
SWIDTH 370 0
DWIDTH 4 0
BBX 4 5 1 4
BITMAP
70
10
70
50
F0
ENDCHAR

STARTCHAR guillemotleft
ENCODING 171
SWIDTH 556 0
DWIDTH 7 0
BBX 4 4 2 1
BITMAP
50
A0
A0
50
ENDCHAR

STARTCHAR logicalnot
ENCODING 172
SWIDTH 584 0
DWIDTH 7 0
BBX 6 4 1 1
BITMAP
FC
04
04
04
ENDCHAR

STARTCHAR hyphen
ENCODING 173
SWIDTH 333 0
DWIDTH 4 0
BBX 3 1 1 3
BITMAP
E0
ENDCHAR

STARTCHAR registered
ENCODING 174
SWIDTH 737 0
DWIDTH 9 0
BBX 9 9 1 0
BITMAP
1F00
2180
5C80
9280
9480
A880
A500
4200
3C00
ENDCHAR

STARTCHAR macron
ENCODING 175
SWIDTH 333 0
DWIDTH 4 0
BBX 3 1 2 8
BITMAP
E0
ENDCHAR

STARTCHAR degree
ENCODING 176
SWIDTH 400 0
DWIDTH 7 0
BBX 4 4 3 5
BITMAP
60
90
90
60
ENDCHAR

STARTCHAR plusminus
ENCODING 177
SWIDTH 584 0
DWIDTH 7 0
BBX 7 7 1 0
BITMAP
08
08
7E
10
10
00
FC
ENDCHAR

STARTCHAR twosuperior
ENCODING 178
SWIDTH 333 0
DWIDTH 4 0
BBX 4 5 -3 4
BITMAP
60
10
20
40
E0
ENDCHAR

STARTCHAR threesuperior
ENCODING 179
SWIDTH 333 0
DWIDTH 4 0
BBX 4 5 -4 4
BITMAP
60
10
60
20
C0
ENDCHAR

STARTCHAR acute
ENCODING 180
SWIDTH 333 0
DWIDTH 4 0
BBX 2 2 3 7
BITMAP
40
80
ENDCHAR

STARTCHAR mu
ENCODING 181
SWIDTH 556 0
DWIDTH 7 0
BBX 7 9 0 -3
BITMAP
22
22
44
44
4C
74
80
80
80
ENDCHAR

STARTCHAR paragraph
ENCODING 182
SWIDTH 537 0
DWIDTH 6 0
BBX 6 11 2 -2
BITMAP
3C
74
E8
E8
E8
68
28
50
50
50
50
ENDCHAR

STARTCHAR periodcentered
ENCODING 183
SWIDTH 278 0
DWIDTH 6 0
BBX 2 1 3 4
BITMAP
C0
ENDCHAR

STARTCHAR cedilla
ENCODING 184
SWIDTH 333 0
DWIDTH 4 0
BBX 3 3 0 -3
BITMAP
60
20
E0
ENDCHAR

STARTCHAR onesuperior
ENCODING 185
SWIDTH 333 0
DWIDTH 4 0
BBX 2 5 -5 4
BITMAP
40
C0
40
80
80
ENDCHAR

STARTCHAR ordmasculine
ENCODING 186
SWIDTH 365 0
DWIDTH 4 0
BBX 4 5 1 4
BITMAP
60
90
90
60
F0
ENDCHAR

STARTCHAR guillemotright
ENCODING 187
SWIDTH 556 0
DWIDTH 7 0
BBX 4 4 1 1
BITMAP
A0
50
50
A0
ENDCHAR

STARTCHAR onequarter
ENCODING 188
SWIDTH 834 0
DWIDTH 10 0
BBX 9 9 4 0
BITMAP
4100
C200
4400
8800
9180
1300
2500
4780
8100
ENDCHAR

STARTCHAR onehalf
ENCODING 189
SWIDTH 834 0
DWIDTH 10 0
BBX 9 9 4 0
BITMAP
4100
C200
4400
8800
9100
1280
2100
4200
8700
ENDCHAR

STARTCHAR threequarters
ENCODING 190
SWIDTH 834 0
DWIDTH 10 0
BBX 10 9 5 0
BITMAP
6080
2100
4200
2400
C8C0
0980
1280
23C0
4080
ENDCHAR

STARTCHAR questiondown
ENCODING 191
SWIDTH 611 0
DWIDTH 7 0
BBX 5 9 1 -3
BITMAP
08
00
10
20
40
80
88
88
70
ENDCHAR

STARTCHAR Agrave
ENCODING 192
SWIDTH 667 0
DWIDTH 8 0
BBX 8 12 0 0
BITMAP
08
04
00
06
0A
0A
12
22
3E
42
42
81
ENDCHAR

STARTCHAR Aacute
ENCODING 193
SWIDTH 667 0
DWIDTH 8 0
BBX 8 12 0 0
BITMAP
02
04
00
06
0A
0A
12
22
3E
42
42
81
ENDCHAR

STARTCHAR Acircumflex
ENCODING 194
SWIDTH 667 0
DWIDTH 8 0
BBX 8 12 0 0
BITMAP
02
05
00
06
0A
0A
12
22
3E
42
42
81
ENDCHAR

STARTCHAR Atilde
ENCODING 195
SWIDTH 667 0
DWIDTH 8 0
BBX 8 12 0 0
BITMAP
0D
0B
00
06
0A
0A
12
22
3E
42
42
81
ENDCHAR

STARTCHAR Adieresis
ENCODING 196
SWIDTH 667 0
DWIDTH 8 0
BBX 8 11 0 0
BITMAP
0A
00
06
0A
0A
12
22
3E
42
42
81
ENDCHAR

STARTCHAR Aring
ENCODING 197
SWIDTH 667 0
DWIDTH 8 0
BBX 8 12 0 0
BITMAP
06
06
00
06
0A
0A
12
22
3E
42
42
81
ENDCHAR

STARTCHAR AE
ENCODING 198
SWIDTH 1000 0
DWIDTH 12 0
BBX 13 9 0 0
BITMAP
07F8
0900
0900
1100
13F0
3E00
4200
4200
83E0
ENDCHAR

STARTCHAR Ccedilla
ENCODING 199
SWIDTH 722 0
DWIDTH 9 0
BBX 8 12 1 -3
BITMAP
1E
21
41
80
80
80
82
84
78
10
10
60
ENDCHAR

STARTCHAR Egrave
ENCODING 200
SWIDTH 667 0
DWIDTH 8 0
BBX 8 12 1 0
BITMAP
10
08
00
3F
20
40
40
7E
40
40
80
FC
ENDCHAR

STARTCHAR Eacute
ENCODING 201
SWIDTH 667 0
DWIDTH 8 0
BBX 8 12 1 0
BITMAP
04
08
00
3F
20
40
40
7E
40
40
80
FC
ENDCHAR

STARTCHAR Ecircumflex
ENCODING 202
SWIDTH 667 0
DWIDTH 8 0
BBX 8 12 1 0
BITMAP
04
0A
00
3F
20
40
40
7E
40
40
80
FC
ENDCHAR

STARTCHAR Edieresis
ENCODING 203
SWIDTH 667 0
DWIDTH 8 0
BBX 8 11 1 0
BITMAP
14
00
3F
20
40
40
7E
40
40
80
FC
ENDCHAR

STARTCHAR Igrave
ENCODING 204
SWIDTH 278 0
DWIDTH 3 0
BBX 3 12 1 0
BITMAP
40
20
00
20
20
20
40
40
40
80
80
80
ENDCHAR

STARTCHAR Iacute
ENCODING 205
SWIDTH 278 0
DWIDTH 3 0
BBX 4 12 1 0
BITMAP
10
20
00
20
20
20
40
40
40
80
80
80
ENDCHAR

STARTCHAR Icircumflex
ENCODING 206
SWIDTH 278 0
DWIDTH 3 0
BBX 4 12 1 0
BITMAP
20
50
00
20
20
20
40
40
40
80
80
80
ENDCHAR

STARTCHAR Idieresis
ENCODING 207
SWIDTH 278 0
DWIDTH 3 0
BBX 4 11 1 0
BITMAP
50
00
20
20
20
40
40
40
80
80
80
ENDCHAR

STARTCHAR Eth
ENCODING 208
SWIDTH 722 0
DWIDTH 9 0
BBX 8 9 1 0
BITMAP
3E
21
21
41
F1
41
82
84
F8
ENDCHAR

STARTCHAR Ntilde
ENCODING 209
SWIDTH 722 0
DWIDTH 9 0
BBX 9 11 1 0
BITMAP
1A00
1600
2080
3080
5100
5100
4900
4900
4500
8600
8200
ENDCHAR

STARTCHAR Ograve
ENCODING 210
SWIDTH 778 0
DWIDTH 9 0
BBX 8 12 1 0
BITMAP
08
04
00
1E
21
41
41
81
82
82
84
78
ENDCHAR

STARTCHAR Oacute
ENCODING 211
SWIDTH 778 0
DWIDTH 9 0
BBX 8 12 1 0
BITMAP
02
04
00
1E
21
41
41
81
82
82
84
78
ENDCHAR

STARTCHAR Ocircumflex
ENCODING 212
SWIDTH 778 0
DWIDTH 9 0
BBX 8 12 1 0
BITMAP
04
0A
00
1E
21
41
41
81
82
82
84
78
ENDCHAR

STARTCHAR Otilde
ENCODING 213
SWIDTH 778 0
DWIDTH 9 0
BBX 8 12 1 0
BITMAP
1A
16
00
1E
21
41
41
81
82
82
84
78
ENDCHAR

STARTCHAR Odieresis
ENCODING 214
SWIDTH 778 0
DWIDTH 9 0
BBX 8 11 1 0
BITMAP
0A
00
1E
21
41
41
81
82
82
84
78
ENDCHAR

STARTCHAR multiply
ENCODING 215
SWIDTH 584 0
DWIDTH 7 0
BBX 6 5 1 0
BITMAP
44
28
30
50
88
ENDCHAR

STARTCHAR Oslash
ENCODING 216
SWIDTH 778 0
DWIDTH 9 0
BBX 9 9 1 0
BITMAP
1E80
2100
4300
4500
8900
9200
A200
4400
F800
ENDCHAR

STARTCHAR Ugrave
ENCODING 217
SWIDTH 722 0
DWIDTH 9 0
BBX 8 12 1 0
BITMAP
10
08
00
21
21
21
42
42
42
84
84
78
ENDCHAR

STARTCHAR Uacute
ENCODING 218
SWIDTH 722 0
DWIDTH 9 0
BBX 8 12 1 0
BITMAP
04
08
00
21
21
21
42
42
42
84
84
78
ENDCHAR

STARTCHAR Ucircumflex
ENCODING 219
SWIDTH 722 0
DWIDTH 9 0
BBX 8 12 1 0
BITMAP
04
0A
00
21
21
21
42
42
42
84
84
78
ENDCHAR

STARTCHAR Udieresis
ENCODING 220
SWIDTH 722 0
DWIDTH 9 0
BBX 8 11 1 0
BITMAP
14
00
21
21
21
42
42
42
84
84
78
ENDCHAR

STARTCHAR Yacute
ENCODING 221
SWIDTH 667 0
DWIDTH 8 0
BBX 8 12 2 0
BITMAP
08
10
00
81
42
44
28
10
10
10
10
10
ENDCHAR

STARTCHAR Thorn
ENCODING 222
SWIDTH 667 0
DWIDTH 8 0
BBX 7 9 1 0
BITMAP
20
3C
22
42
42
7C
80
80
80
ENDCHAR

STARTCHAR germandbls
ENCODING 223
SWIDTH 611 0
DWIDTH 7 0
BBX 6 9 2 0
BITMAP
18
24
44
44
58
44
84
88
B0
ENDCHAR

STARTCHAR agrave
ENCODING 224
SWIDTH 556 0
DWIDTH 7 0
BBX 6 9 1 0
BITMAP
10
08
00
3C
04
7C
88
88
74
ENDCHAR

STARTCHAR aacute
ENCODING 225
SWIDTH 556 0
DWIDTH 7 0
BBX 6 9 1 0
BITMAP
04
08
00
3C
04
7C
88
88
74
ENDCHAR

STARTCHAR acircumflex
ENCODING 226
SWIDTH 556 0
DWIDTH 7 0
BBX 6 9 1 0
BITMAP
08
14
00
3C
04
7C
88
88
74
ENDCHAR

STARTCHAR atilde
ENCODING 227
SWIDTH 556 0
DWIDTH 7 0
BBX 6 9 1 0
BITMAP
34
2C
00
3C
04
7C
88
88
74
ENDCHAR

STARTCHAR adieresis
ENCODING 228
SWIDTH 556 0
DWIDTH 7 0
BBX 6 8 1 0
BITMAP
14
00
3C
04
7C
88
88
74
ENDCHAR

STARTCHAR aring
ENCODING 229
SWIDTH 556 0
DWIDTH 7 0
BBX 6 9 1 0
BITMAP
18
18
00
3C
04
7C
88
88
74
ENDCHAR

STARTCHAR ae
ENCODING 230
SWIDTH 889 0
DWIDTH 11 0
BBX 10 6 1 0
BITMAP
3B80
0440
7FC0
8800
8840
7780
ENDCHAR

STARTCHAR ccedilla
ENCODING 231
SWIDTH 500 0
DWIDTH 6 0
BBX 6 9 1 -3
BITMAP
38
44
80
80
88
70
20
20
E0
ENDCHAR

STARTCHAR egrave
ENCODING 232
SWIDTH 556 0
DWIDTH 7 0
BBX 6 9 1 0
BITMAP
10
08
00
38
44
FC
80
88
70
ENDCHAR

STARTCHAR eacute
ENCODING 233
SWIDTH 556 0
DWIDTH 7 0
BBX 6 9 1 0
BITMAP
04
08
00
38
44
FC
80
88
70
ENDCHAR

STARTCHAR ecircumflex
ENCODING 234
SWIDTH 556 0
DWIDTH 7 0
BBX 6 9 1 0
BITMAP
08
14
00
38
44
FC
80
88
70
ENDCHAR

STARTCHAR edieresis
ENCODING 235
SWIDTH 556 0
DWIDTH 7 0
BBX 6 8 1 0
BITMAP
28
00
38
44
FC
80
88
70
ENDCHAR

STARTCHAR igrave
ENCODING 236
SWIDTH 278 0
DWIDTH 3 0
BBX 3 9 1 0
BITMAP
40
20
00
40
40
40
80
80
80
ENDCHAR

STARTCHAR iacute
ENCODING 237
SWIDTH 278 0
DWIDTH 3 0
BBX 4 9 1 0
BITMAP
10
20
00
40
40
40
80
80
80
ENDCHAR

STARTCHAR icircumflex
ENCODING 238
SWIDTH 278 0
DWIDTH 3 0
BBX 4 9 1 0
BITMAP
20
50
00
40
40
40
80
80
80
ENDCHAR

STARTCHAR idieresis
ENCODING 239
SWIDTH 278 0
DWIDTH 3 0
BBX 4 8 1 0
BITMAP
50
00
40
40
40
80
80
80
ENDCHAR

STARTCHAR eth
ENCODING 240
SWIDTH 556 0
DWIDTH 7 0
BBX 6 9 1 0
BITMAP
24
18
28
38
44
84
84
88
70
ENDCHAR

STARTCHAR ntilde
ENCODING 241
SWIDTH 556 0
DWIDTH 7 0
BBX 6 9 1 0
BITMAP
34
2C
00
58
64
44
44
88
88
ENDCHAR

STARTCHAR ograve
ENCODING 242
SWIDTH 556 0
DWIDTH 7 0
BBX 6 9 1 0
BITMAP
10
08
00
38
44
84
84
88
70
ENDCHAR

STARTCHAR oacute
ENCODING 243
SWIDTH 556 0
DWIDTH 7 0
BBX 6 9 1 0
BITMAP
04
08
00
38
44
84
84
88
70
ENDCHAR

STARTCHAR ocircumflex
ENCODING 244
SWIDTH 556 0
DWIDTH 7 0
BBX 6 9 1 0
BITMAP
08
14
00
38
44
84
84
88
70
ENDCHAR

STARTCHAR otilde
ENCODING 245
SWIDTH 556 0
DWIDTH 7 0
BBX 6 9 1 0
BITMAP
34
2C
00
38
44
84
84
88
70
ENDCHAR

STARTCHAR odieresis
ENCODING 246
SWIDTH 556 0
DWIDTH 7 0
BBX 6 8 1 0
BITMAP
28
00
38
44
84
84
88
70
ENDCHAR

STARTCHAR divide
ENCODING 247
SWIDTH 584 0
DWIDTH 7 0
BBX 6 5 1 0
BITMAP
10
00
FC
00
20
ENDCHAR

STARTCHAR oslash
ENCODING 248
SWIDTH 611 0
DWIDTH 7 0
BBX 6 6 1 0
BITMAP
3C
4C
94
A4
C8
F0
ENDCHAR

STARTCHAR ugrave
ENCODING 249
SWIDTH 556 0
DWIDTH 7 0
BBX 6 9 1 0
BITMAP
10
08
00
44
44
88
88
88
74
ENDCHAR

STARTCHAR uacute
ENCODING 250
SWIDTH 556 0
DWIDTH 7 0
BBX 6 9 1 0
BITMAP
04
08
00
44
44
88
88
88
74
ENDCHAR

STARTCHAR ucircumflex
ENCODING 251
SWIDTH 556 0
DWIDTH 7 0
BBX 6 9 1 0
BITMAP
08
14
00
44
44
88
88
88
74
ENDCHAR

STARTCHAR udieresis
ENCODING 252
SWIDTH 556 0
DWIDTH 7 0
BBX 6 8 1 0
BITMAP
28
00
44
44
88
88
88
74
ENDCHAR

STARTCHAR yacute
ENCODING 253
SWIDTH 500 0
DWIDTH 6 0
BBX 7 12 0 -3
BITMAP
02
04
00
42
24
24
28
10
10
20
40
80
ENDCHAR

STARTCHAR thorn
ENCODING 254
SWIDTH 556 0
DWIDTH 5 0
BBX 7 12 0 -3
BITMAP
20
20
20
3C
22
42
42
44
78
80
80
80
ENDCHAR

STARTCHAR ydieresis
ENCODING 255
SWIDTH 500 0
DWIDTH 6 0
BBX 7 11 0 -3
BITMAP
14
00
42
24
24
28
10
10
20
40
80
ENDCHAR
ENDFONT
